<svg width="72" height="72" viewBox="0 0 72 72" fill="none" xmlns="http://www.w3.org/2000/svg">
<path fill-rule="evenodd" clip-rule="evenodd" d="M36.6 18C43.2274 18 48.6 12.6274 48.6 6H56.6C62.1228 6 66.6 10.4772 66.6 16V56C66.6 61.5228 62.1228 66 56.6 66H48.6C48.6 59.3726 43.2274 54 36.6 54C29.9726 54 24.6 59.3726 24.6 66H16.6C11.0771 66 6.59998 61.5228 6.59998 56V16C6.59998 10.4772 11.0771 6 16.6 6H24.6C24.6 12.6274 29.9726 18 36.6 18ZM36.6 42C39.9137 42 42.6 39.3137 42.6 36C42.6 32.6863 39.9137 30 36.6 30C33.2863 30 30.6 32.6863 30.6 36C30.6 39.3137 33.2863 42 36.6 42Z" fill="#42B983"/>
</svg>
