<svg width="144" height="144" viewBox="0 0 144 144" fill="none" xmlns="http://www.w3.org/2000/svg">
<path fill-rule="evenodd" clip-rule="evenodd" d="M73.2 36C86.4548 36 97.2 25.2548 97.2 12H123.2C128.723 12 133.2 16.4772 133.2 22V122C133.2 127.523 128.723 132 123.2 132H97.2C97.2 118.745 86.4548 108 73.2 108C59.9452 108 49.2 118.745 49.2 132H23.1999C17.6771 132 13.2 127.523 13.2 122V22C13.2 16.4772 17.6771 12 23.2 12H49.2C49.2 25.2548 59.9452 36 73.2 36ZM73.2 84C79.8274 84 85.2 78.6274 85.2 72C85.2 65.3726 79.8274 60 73.2 60C66.5726 60 61.2 65.3726 61.2 72C61.2 78.6274 66.5726 84 73.2 84Z" fill="#42B983"/>
</svg>
