<svg width="256" height="256" viewBox="0 0 256 256" fill="none" xmlns="http://www.w3.org/2000/svg">
<rect x="26" y="24" width="208" height="208" rx="48" fill="white"/>
<path fill-rule="evenodd" clip-rule="evenodd" d="M130 89.6C144.138 89.6 155.6 78.1385 155.6 64L184 64C189.523 64 194 68.4772 194 74V182C194 187.523 189.523 192 184 192L155.6 192C155.6 177.861 144.138 166.4 130 166.4C115.861 166.4 104.4 177.861 104.4 192L76 192C70.4771 192 66 187.523 66 182V74C66 68.4771 70.4772 64 76 64L104.4 64C104.4 78.1385 115.861 89.6 130 89.6ZM130 140.8C137.069 140.8 142.8 135.069 142.8 128C142.8 120.931 137.069 115.2 130 115.2C122.931 115.2 117.2 120.931 117.2 128C117.2 135.069 122.931 140.8 130 140.8Z" fill="#42B983"/>
</svg>
