<svg width="192" height="192" viewBox="0 0 192 192" fill="none" xmlns="http://www.w3.org/2000/svg">
<path fill-rule="evenodd" clip-rule="evenodd" d="M97.6 48C115.273 48 129.6 33.6731 129.6 16H167.6C173.123 16 177.6 20.4772 177.6 26V166C177.6 171.523 173.123 176 167.6 176H129.6C129.6 158.327 115.273 144 97.6 144C79.9269 144 65.6 158.327 65.6 176H27.6C22.0771 176 17.6 171.523 17.6 166V26C17.6 20.4772 22.0771 16 27.6 16H65.6C65.6 33.6731 79.9269 48 97.6 48ZM97.6 112C106.437 112 113.6 104.837 113.6 96C113.6 87.1634 106.437 80 97.6 80C88.7634 80 81.6 87.1634 81.6 96C81.6 104.837 88.7634 112 97.6 112Z" fill="#42B983"/>
</svg>
