<svg width="150" height="100" viewBox="0 0 150 100" fill="none" xmlns="http://www.w3.org/2000/svg">
<path fill-rule="evenodd" clip-rule="evenodd" d="M55 20C66.0457 20 75 11.0457 75 0H140C145.523 0 150 4.47715 150 10V90C150 95.5228 145.523 100 140 100H75C75 88.9543 66.0457 80 55 80C43.9543 80 35 88.9543 35 100H10C4.47715 100 0 95.5229 0 90V10C0 4.47716 4.47715 0 10 0H35C35 11.0457 43.9543 20 55 20ZM55 60C60.5228 60 65 55.5228 65 50C65 44.4772 60.5228 40 55 40C49.4772 40 45 44.4772 45 50C45 55.5228 49.4772 60 55 60Z" fill="#42B983"/>
</svg>
