<svg width="120" height="120" viewBox="0 0 120 120" fill="none" xmlns="http://www.w3.org/2000/svg">
<path fill-rule="evenodd" clip-rule="evenodd" d="M61 30C72.0457 30 81 21.0457 81 10H101C106.523 10 111 14.4772 111 20V100C111 105.523 106.523 110 101 110H81C81 98.9543 72.0457 90 61 90C49.9543 90 41 98.9543 41 110H21C15.4772 110 11 105.523 11 100V20C11 14.4772 15.4772 10 21 10H41C41 21.0457 49.9543 30 61 30ZM61 70C66.5228 70 71 65.5228 71 60C71 54.4772 66.5228 50 61 50C55.4772 50 51 54.4772 51 60C51 65.5228 55.4772 70 61 70Z" fill="#42B983"/>
</svg>
