<svg width="256" height="256" viewBox="0 0 256 256" fill="none" xmlns="http://www.w3.org/2000/svg">
<rect x="26" y="24" width="208" height="208" rx="48" fill="white"/>
<path fill-rule="evenodd" clip-rule="evenodd" d="M130 83C146.568 83 160 69.5685 160 53L195 53C200.523 53 205 57.4772 205 63V193C205 198.523 200.523 203 195 203H160C160 186.431 146.568 173 130 173C113.431 173 99.9998 186.431 99.9998 203H65C59.4772 203 55 198.523 55 193V63C55 57.4772 59.4772 53 65 53L99.9998 53C99.9998 69.5685 113.431 83 130 83ZM130 143C138.284 143 145 136.284 145 128C145 119.716 138.284 113 130 113C121.716 113 115 119.716 115 128C115 136.284 121.716 143 130 143Z" fill="#42B983"/>
</svg>
